HIERARCHY
ROOT Hips
{
	OFFSET -0.066283 88.859909 3.106752
	CHANNELS 6 Xposition Yposition Zposition Zrotation Yrotation Xrotation 
	JOINT Spine
	{
		OFFSET -0.000000 8.814246 -2.080107
		CHANNELS 3 Zrotation Yrotation Xrotation
		JOINT Spine1
		{
			OFFSET -0.000000 8.844141 0.000000
			CHANNELS 3 Zrotation Yrotation Xrotation
			JOINT Spine2
			{
				OFFSET 0.000000 11.682268 0.000000
				CHANNELS 3 Zrotation Yrotation Xrotation
				JOINT Spine3
				{
					OFFSET -0.000000 11.746700 0.000000
					CHANNELS 3 Zrotation Yrotation Xrotation
					JOINT Neck
					{
						OFFSET -0.000000 17.658264 0.000000
						CHANNELS 3 Zrotation Yrotation Xrotation
						JOINT Neck1
						{
							OFFSET 0.000000 5.101515 -0.000000
							CHANNELS 3 Zrotation Yrotation Xrotation
							JOINT Head
							{
								OFFSET -0.000000 5.101515 -0.000000
								CHANNELS 3 Zrotation Yrotation Xrotation
								JOINT HeadEnd
								{
									OFFSET 0.000000 11.655085 -0.000000
									CHANNELS 3 Zrotation Yrotation Xrotation
									End Site
									{
										OFFSET 0.000000 0.000000 0.000000
									}
								}
							}
						}
					}
					JOINT RightShoulder
					{
						OFFSET -2.625389 11.175210 -0.000000
						CHANNELS 3 Zrotation Yrotation Xrotation
						JOINT RightArm
						{
							OFFSET 0.000000 10.434715 -0.000000
							CHANNELS 3 Zrotation Yrotation Xrotation
							JOINT RightForeArm
							{
								OFFSET -0.000000 29.628420 0.000000
								CHANNELS 3 Zrotation Yrotation Xrotation
								JOINT RightHand
								{
									OFFSET -0.000000 22.857611 0.000000
									CHANNELS 3 Zrotation Yrotation Xrotation
									JOINT RightHandThumb1
									{
										OFFSET -2.867323 3.959563 2.944291
										CHANNELS 3 Zrotation Yrotation Xrotation
										JOINT RightHandThumb2
										{
											OFFSET -0.000000 3.350399 0.000000
											CHANNELS 3 Zrotation Yrotation Xrotation
											JOINT RightHandThumb3
											{
												OFFSET -0.000000 3.756509 -0.000000
												CHANNELS 3 Zrotation Yrotation Xrotation
												JOINT RightHandThumb4
												{
													OFFSET -0.000000 3.147345 0.000000
													CHANNELS 3 Zrotation Yrotation Xrotation
													End Site
													{
														OFFSET 0.000000 0.000000 0.000000
													}
												}
											}
										}
									}
									JOINT RightHandIndex1
									{
										OFFSET -0.086752 10.030893 2.345280
										CHANNELS 3 Zrotation Yrotation Xrotation
										JOINT RightHandIndex2
										{
											OFFSET 0.000000 4.061090 -0.000000
											CHANNELS 3 Zrotation Yrotation Xrotation
											JOINT RightHandIndex3
											{
												OFFSET 0.000000 3.248873 -0.000000
												CHANNELS 3 Zrotation Yrotation Xrotation
												JOINT RightHandIndex4
												{
													OFFSET 0.000000 2.639709 0.000000
													CHANNELS 3 Zrotation Yrotation Xrotation
													End Site
													{
														OFFSET 0.000000 0.000000 0.000000
													}
												}
											}
										}
									}
									JOINT RightHandMiddle1
									{
										OFFSET 0.104102 9.502952 0.006768
										CHANNELS 3 Zrotation Yrotation Xrotation
										JOINT RightHandMiddle2
										{
											OFFSET 0.000000 4.568727 0.000000
											CHANNELS 3 Zrotation Yrotation Xrotation
											JOINT RightHandMiddle3
											{
												OFFSET 0.000000 3.654981 -0.000000
												CHANNELS 3 Zrotation Yrotation Xrotation
												JOINT RightHandMiddle4
												{
													OFFSET -0.000000 2.741236 0.000000
													CHANNELS 3 Zrotation Yrotation Xrotation
													End Site
													{
														OFFSET 0.000000 0.000000 0.000000
													}
												}
											}
										}
									}
									JOINT RightHandRing1
									{
										OFFSET 0.086752 8.921708 -2.267442
										CHANNELS 3 Zrotation Yrotation Xrotation
										JOINT RightHandRing2
										{
											OFFSET 0.000000 4.061090 -0.000000
											CHANNELS 3 Zrotation Yrotation Xrotation
											JOINT RightHandRing3
											{
												OFFSET -0.000000 3.654981 0.000000
												CHANNELS 3 Zrotation Yrotation Xrotation
												JOINT RightHandRing4
												{
													OFFSET -0.000000 2.741236 0.000000
													CHANNELS 3 Zrotation Yrotation Xrotation
													End Site
													{
														OFFSET 0.000000 0.000000 0.000000
													}
												}
											}
										}
									}
									JOINT RightHandPinky1
									{
										OFFSET -0.173504 7.976997 -4.467199
										CHANNELS 3 Zrotation Yrotation Xrotation
										JOINT RightHandPinky2
										{
											OFFSET -0.000000 3.350399 0.000000
											CHANNELS 3 Zrotation Yrotation Xrotation
											JOINT RightHandPinky3
											{
												OFFSET 0.000000 2.842763 0.000000
												CHANNELS 3 Zrotation Yrotation Xrotation
												JOINT RightHandPinky4
												{
													OFFSET 0.000000 2.639709 0.000000
													CHANNELS 3 Zrotation Yrotation Xrotation
													End Site
													{
														OFFSET 0.000000 0.000000 0.000000
													}
												}
											}
										}
									}
									JOINT RightForeArmEnd
									{
										OFFSET 0.000000 0.000000 0.000000
										CHANNELS 3 Zrotation Yrotation Xrotation
										End Site
										{
											OFFSET 0.000000 0.000000 0.000000
										}
									}
								}
								JOINT RightArmEnd
								{
									OFFSET 0.000000 0.000000 0.000000
									CHANNELS 3 Zrotation Yrotation Xrotation
									End Site
									{
										OFFSET 0.000000 0.000000 0.000000
									}
								}
							}
						}
					}
					JOINT LeftShoulder
					{
						OFFSET 2.625389 11.175210 0.000000
						CHANNELS 3 Zrotation Yrotation Xrotation
						JOINT LeftArm
						{
							OFFSET -0.000000 10.813635 -0.000000
							CHANNELS 3 Zrotation Yrotation Xrotation
							JOINT LeftForeArm
							{
								OFFSET -0.000000 28.724781 -0.000000
								CHANNELS 3 Zrotation Yrotation Xrotation
								JOINT LeftHand
								{
									OFFSET 0.644384 25.716167 -0.328871
									CHANNELS 3 Zrotation Yrotation Xrotation
									JOINT LeftHandThumb1
									{
										OFFSET 2.867323 3.959563 2.944291
										CHANNELS 3 Zrotation Yrotation Xrotation
										JOINT LeftHandThumb2
										{
											OFFSET 0.000000 3.350399 0.000000
											CHANNELS 3 Zrotation Yrotation Xrotation
											JOINT LeftHandThumb3
											{
												OFFSET -0.000000 3.756509 -0.000000
												CHANNELS 3 Zrotation Yrotation Xrotation
												JOINT LeftHandThumb4
												{
													OFFSET 0.000000 3.100000 0.000000
													CHANNELS 3 Zrotation Yrotation Xrotation
													End Site
													{
														OFFSET 0.000000 0.000000 0.000000
													}
												}
											}
										}
									}
									JOINT LeftHandIndex1
									{
										OFFSET 0.086752 10.030893 2.345280
										CHANNELS 3 Zrotation Yrotation Xrotation
										JOINT LeftHandIndex2
										{
											OFFSET 0.000000 4.061090 0.000000
											CHANNELS 3 Zrotation Yrotation Xrotation
											JOINT LeftHandIndex3
											{
												OFFSET -0.000000 3.248873 -0.000000
												CHANNELS 3 Zrotation Yrotation Xrotation
												JOINT LeftHandIndex4
												{
													OFFSET 0.000000 2.639709 0.000000
													CHANNELS 3 Zrotation Yrotation Xrotation
													End Site
													{
														OFFSET 0.000000 0.000000 0.000000
													}
												}
											}
										}
									}
									JOINT LeftHandMiddle1
									{
										OFFSET -0.104102 9.502952 0.006768
										CHANNELS 3 Zrotation Yrotation Xrotation
										JOINT LeftHandMiddle2
										{
											OFFSET -0.000000 4.568727 -0.000000
											CHANNELS 3 Zrotation Yrotation Xrotation
											JOINT LeftHandMiddle3
											{
												OFFSET -0.000000 3.654981 -0.000000
												CHANNELS 3 Zrotation Yrotation Xrotation
												JOINT LeftHandMiddle4
												{
													OFFSET 0.000000 2.741236 0.000000
													CHANNELS 3 Zrotation Yrotation Xrotation
													End Site
													{
														OFFSET 0.000000 0.000000 0.000000
													}
												}
											}
										}
									}
									JOINT LeftHandRing1
									{
										OFFSET -0.086752 8.921708 -2.267442
										CHANNELS 3 Zrotation Yrotation Xrotation
										JOINT LeftHandRing2
										{
											OFFSET 0.000000 4.061090 0.000000
											CHANNELS 3 Zrotation Yrotation Xrotation
											JOINT LeftHandRing3
											{
												OFFSET 0.000000 3.654981 -0.000000
												CHANNELS 3 Zrotation Yrotation Xrotation
												JOINT LeftHandRing4
												{
													OFFSET -0.000000 2.741236 -0.000000
													CHANNELS 3 Zrotation Yrotation Xrotation
													End Site
													{
														OFFSET 0.000000 0.000000 0.000000
													}
												}
											}
										}
									}
									JOINT LeftHandPinky1
									{
										OFFSET 0.173504 7.976997 -4.467199
										CHANNELS 3 Zrotation Yrotation Xrotation
										JOINT LeftHandPinky2
										{
											OFFSET -0.000000 3.350399 -0.000000
											CHANNELS 3 Zrotation Yrotation Xrotation
											JOINT LeftHandPinky3
											{
												OFFSET 0.000000 2.842763 -0.000000
												CHANNELS 3 Zrotation Yrotation Xrotation
												JOINT LeftHandPinky4
												{
													OFFSET -0.000000 2.639709 -0.000000
													CHANNELS 3 Zrotation Yrotation Xrotation
													End Site
													{
														OFFSET 0.000000 0.000000 0.000000
													}
												}
											}
										}
									}
									JOINT LeftForeArmEnd
									{
										OFFSET 0.000000 0.000000 0.000000
										CHANNELS 3 Zrotation Yrotation Xrotation
										End Site
										{
											OFFSET 0.000000 0.000000 0.000000
										}
									}
								}
								JOINT LeftArmEnd
								{
									OFFSET 0.000000 0.000000 0.000000
									CHANNELS 3 Zrotation Yrotation Xrotation
									End Site
									{
										OFFSET 0.000000 0.000000 0.000000
									}
								}
							}
						}
					}
				}
			}
		}
	}
	JOINT RightUpLeg
	{
		OFFSET -11.289943 -0.000000 0.000000
		CHANNELS 3 Zrotation Yrotation Xrotation
		JOINT RightLeg
		{
			OFFSET 0.000000 -38.200325 -0.000000
			CHANNELS 3 Zrotation Yrotation Xrotation
			JOINT RightFoot
			{
				OFFSET -0.000000 -39.900856 0.000000
				CHANNELS 3 Zrotation Yrotation Xrotation
				JOINT RightToeBase
				{
					OFFSET 0.000000 0.000000 15.261641
					CHANNELS 3 Zrotation Yrotation Xrotation
					JOINT RightToeBaseEnd
					{
						OFFSET 0.000000 0.000000 7.370709
						CHANNELS 3 Zrotation Yrotation Xrotation
						End Site
						{
							OFFSET 0.000000 0.000000 0.000000
						}
					}
				}
				JOINT RightLegEnd
				{
					OFFSET 0.000000 0.000000 0.000000
					CHANNELS 3 Zrotation Yrotation Xrotation
					End Site
					{
						OFFSET 0.000000 0.000000 0.000000
					}
				}
			}
			JOINT RightUpLegEnd
			{
				OFFSET 0.000000 0.000000 0.000000
				CHANNELS 3 Zrotation Yrotation Xrotation
				End Site
				{
					OFFSET 0.000000 0.000000 0.000000
				}
			}
		}
	}
	JOINT LeftUpLeg
	{
		OFFSET 11.315661 0.000000 0.000000
		CHANNELS 3 Zrotation Yrotation Xrotation
		JOINT LeftLeg
		{
			OFFSET 0.000000 -38.200325 -0.000000
			CHANNELS 3 Zrotation Yrotation Xrotation
			JOINT LeftFoot
			{
				OFFSET 0.000000 -39.900856 -0.000000
				CHANNELS 3 Zrotation Yrotation Xrotation
				JOINT LeftToeBase
				{
					OFFSET 0.000000 -0.000000 15.261641
					CHANNELS 3 Zrotation Yrotation Xrotation
					JOINT LeftToeBaseEnd
					{
						OFFSET -0.000000 0.000000 7.539996
						CHANNELS 3 Zrotation Yrotation Xrotation
						End Site
						{
							OFFSET 0.000000 0.000000 0.000000
						}
					}
				}
				JOINT LeftLegEnd
				{
					OFFSET 0.000000 0.000000 0.000000
					CHANNELS 3 Zrotation Yrotation Xrotation
					End Site
					{
						OFFSET 0.000000 0.000000 0.000000
					}
				}
			}
			JOINT LeftUpLegEnd
			{
				OFFSET 0.000000 0.000000 0.000000
				CHANNELS 3 Zrotation Yrotation Xrotation
				End Site
				{
					OFFSET 0.000000 0.000000 0.000000
				}
			}
		}
	}
}
MOTION
Frames: 5
Frame Time: 0.016667
-0.066283 88.859909 3.106752 -0.554998 -0.063200 -6.496325 0.035903 -0.002268 5.888138 1.007702 -0.066753 0.859935 -0.482675 2.416700 3.828048 -0.160674 0.780135 1.924824 -2.324279 -0.847468 5.016633 -0.365139 -2.116586 -3.221972 0.720381 0.853138 -18.220909 0.000000 0.000000 0.000000 92.020271 -0.208433 5.546823 69.638977 -19.089216 -1.147147 0.059477 8.331356 28.544134 2.918324 25.791067 -8.931848 11.217805 -1.887472 39.615406 0.000000 0.000000 -27.315002 0.000000 0.000000 -18.968748 0.000000 0.000000 0.000000 13.213602 16.646936 -12.039722 11.238620 -0.665555 -3.398387 11.238004 0.315584 -3.203499 0.000000 0.000000 0.000000 14.610597 6.862490 -11.429158 11.135071 -0.860474 -1.356066 11.133999 0.111766 -1.162957 0.000000 0.000000 0.000000 19.862411 -8.846701 -10.677217 12.650033 1.760184 1.978157 12.644374 -0.177743 1.540332 0.000000 0.000000 0.000000 23.790291 -25.600758 -10.773308 12.395708 3.368127 5.825091 12.374576 -0.538114 4.967071 0.000000 0.000000 0.000000 0.000000 0.000000 0.000000 0.000000 0.000000 0.000000 -90.685371 0.125338 9.277699 -68.205345 33.746468 -2.114506 -0.906679 -12.804414 36.500160 -5.004631 -13.813062 -13.796777 -10.637670 1.840801 39.870987 0.000000 0.000000 -25.919998 0.000000 0.000000 -18.000004 0.000000 0.000000 0.000000 -15.727524 16.759449 -9.934354 -8.634541 -0.781970 2.617436 -8.634687 0.185794 2.467350 0.000000 0.000000 0.000000 -12.632174 6.870213 -11.103483 -7.858750 -0.942948 0.960031 -7.861093 -0.138773 0.818618 0.000000 0.000000 0.000000 -9.446996 -8.823497 -11.456291 -7.804728 1.917102 -1.226388 -7.800338 -0.064224 -0.954850 0.000000 0.000000 0.000000 -4.422287 -25.333719 -13.915033 -6.810095 3.806906 -3.213968 -6.795249 -0.160380 -2.740026 0.000000 0.000000 0.000000 0.000000 0.000000 0.000000 0.000000 0.000000 0.000000 1.904249 6.541767 7.475135 -0.037531 -0.408927 7.546108 -4.730400 1.738853 18.019159 -0.347465 0.340706 -20.620296 0.000000 0.000000 0.000000 0.000000 0.000000 0.000000 0.000000 0.000000 0.000000 1.163178 10.511868 11.895180 0.051614 0.626121 3.761402 1.290193 7.867616 18.489267 0.739732 -0.851381 -19.069050 0.000000 0.000000 0.000000 0.000000 0.000000 0.000000 0.000000 0.000000 0.000000 
-0.058546 88.768196 3.103069 -0.036821 0.168911 -8.267812 -1.126243 0.246673 6.896520 1.403959 -0.206153 2.433577 -0.923784 2.058072 2.950142 1.255967 0.300871 3.032072 -3.841342 0.528718 3.626874 -0.078638 -0.764203 -3.504531 -0.025909 0.351908 -18.003746 0.000000 0.000000 0.000000 90.369034 -0.055172 6.929935 69.839798 -19.686090 1.017878 0.171367 10.147672 26.130445 3.799868 23.149349 -7.970204 11.148690 -1.871431 39.670986 -0.000008 0.000017 -27.215292 -0.000004 0.000034 -18.914774 -0.000000 -0.000006 -0.000008 13.583635 16.937302 -10.423605 10.693392 -0.602234 -3.001650 10.751074 0.376429 -2.803723 -0.000018 0.000014 -0.000025 14.359270 7.015930 -10.704818 10.534005 -0.843807 -1.200837 10.583047 0.132057 -1.021213 0.000023 0.000001 0.000008 18.934526 -9.042111 -10.637839 11.564496 1.765384 1.694386 11.518566 -0.187871 1.308459 -0.000031 -0.000088 0.000013 23.220934 -25.543772 -12.104942 11.248291 3.306424 4.982678 11.045410 -0.590976 4.252488 0.000297 -0.000005 0.000012 0.000000 0.000000 0.000000 0.000000 0.000000 0.000000 -90.520203 0.212705 9.156878 -66.849785 34.303875 -2.535887 -1.144111 -13.407139 37.545521 -3.856430 -10.716187 -14.067689 -10.725154 1.826608 39.859905 0.000002 0.000015 -26.069458 -0.000016 -0.000024 -18.145418 -0.000227 -0.000003 0.000155 -15.462714 17.162138 -9.756937 -8.853938 -0.668341 2.813372 -9.063843 0.303110 2.642849 -0.000001 0.000637 0.000004 -12.656880 7.099770 -10.444490 -8.453317 -0.880761 1.086026 -8.216398 0.100029 0.932956 0.000241 -0.000039 -0.000083 -9.258666 -9.065583 -10.394309 -8.136062 1.838915 -1.526180 -8.048282 -0.124456 -1.154203 -0.000130 0.000009 0.000001 -4.158979 -25.784586 -12.978393 -6.897439 3.519911 -4.097222 -6.963346 -0.385137 -3.529027 -0.000016 -0.000012 -0.000034 0.000000 0.000000 0.000000 0.000000 0.000000 0.000000 1.346395 5.141994 8.006907 -0.072540 -0.384095 9.388568 -4.162123 0.231897 17.278835 -0.426571 0.425375 -20.916018 0.000000 0.000000 0.000000 0.000000 0.000000 0.000000 0.000000 0.000000 0.000000 0.956775 8.727499 11.553878 0.039545 0.656715 6.191276 1.144565 9.275906 17.633551 0.746113 -0.811611 -19.021523 0.000000 0.000000 0.000000 0.000000 0.000000 0.000000 0.000000 0.000000 0.000000 
-0.069118 88.769119 3.081402 -0.061457 0.257968 -8.371010 -1.137902 0.235752 6.976174 1.373709 -0.192118 2.457245 -0.948303 2.014710 2.962207 1.303748 0.255431 2.985812 -3.878408 0.563176 3.804159 -0.061364 -0.729278 -3.311194 -0.067366 0.337419 -18.021324 0.000000 0.000000 0.000000 90.359200 -0.032958 6.931707 69.730354 -19.871204 1.171910 0.115902 10.012729 26.077627 3.974374 23.181984 -8.153997 11.077389 -1.867624 39.701958 -0.000004 0.000031 -27.061464 -0.000006 0.000032 -18.804197 0.000011 -0.000001 -0.000018 13.411374 16.914299 -10.254104 10.533555 -0.622329 -2.936627 10.594419 0.357061 -2.742810 0.000000 0.000024 -0.000023 14.156733 7.003824 -10.543026 10.350478 -0.851986 -1.172912 10.384146 0.124891 -0.997689 0.000021 -0.000023 0.000001 18.740938 -9.021831 -10.557808 11.365623 1.778555 1.658054 11.311811 -0.177662 1.279246 -0.000035 0.000002 0.000001 23.073439 -25.492855 -12.133299 11.069993 3.345943 4.886384 10.852713 -0.560021 4.168453 0.000267 0.000006 0.000004 0.000000 0.000000 0.000000 0.000000 0.000000 0.000000 -90.437889 0.156328 9.269004 -67.064438 34.286037 -2.642012 -1.115048 -13.210643 37.605232 -3.700947 -10.528119 -14.146312 -10.717825 1.820290 39.864735 0.000009 0.000020 -26.057407 -0.000017 -0.000012 -18.130638 -0.000415 0.000005 0.000166 -15.592658 17.167183 -9.724360 -8.930047 -0.677455 2.790259 -9.136486 0.295188 2.619205 0.000013 0.000555 0.000010 -12.755964 7.100600 -10.432513 -8.498231 -0.884467 1.072233 -8.263947 0.096942 0.922674 0.000274 -0.000035 -0.000122 -9.393739 -9.062526 -10.399602 -8.172807 1.845509 -1.511404 -8.091575 -0.120067 -1.143919 0.000043 0.000016 0.000004 -4.338495 -25.797062 -13.011978 -6.956204 3.537436 -4.054556 -7.012747 -0.371689 -3.496699 0.000012 0.000005 -0.000050 0.000000 0.000000 0.000000 0.000000 0.000000 0.000000 1.382485 5.115300 8.050377 -0.069556 -0.373598 9.500897 -4.175998 0.239329 17.247910 -0.413628 0.429584 -20.885313 0.000000 0.000000 0.000000 0.000000 0.000000 0.000000 0.000000 0.000000 0.000000 0.982161 8.719635 11.731710 0.039539 0.660301 6.018285 1.113072 9.111367 17.722425 0.756686 -0.825509 -19.019434 0.000000 0.000000 0.000000 0.000000 0.000000 0.000000 0.000000 0.000000 0.000000 
-0.080088 88.772888 3.057917 -0.049797 0.336016 -8.448043 -1.164885 0.234788 7.049386 1.339920 -0.178555 2.485964 -0.951148 1.988101 2.967736 1.349371 0.232507 2.934510 -3.933753 0.613916 3.862226 -0.048160 -0.685288 -3.215918 -0.097564 0.332508 -18.061474 0.000000 0.000000 0.000000 90.334480 -0.024736 6.939070 69.751724 -19.864931 1.210621 0.091000 9.984103 25.947144 4.086452 23.184731 -8.294991 11.014636 -1.862440 39.729671 -0.000002 0.000031 -26.921419 -0.000008 0.000033 -18.701296 0.000010 -0.000001 -0.000018 13.205237 16.904446 -10.134994 10.419080 -0.640955 -2.864358 10.480993 0.338877 -2.676462 0.000001 0.000024 -0.000024 13.922760 6.998994 -10.429702 10.208634 -0.859718 -1.143137 10.231737 0.118061 -0.972162 0.000021 -0.000031 0.000004 18.504711 -9.013824 -10.502446 11.206392 1.790330 1.619570 11.156444 -0.168337 1.249169 -0.000034 0.000125 0.000002 22.894070 -25.470703 -12.156034 10.939215 3.380708 4.790598 10.709211 -0.532815 4.084616 0.000242 0.000005 -0.000003 0.000000 0.000000 0.000000 0.000000 0.000000 0.000000 -90.327911 0.124566 9.354238 -67.390129 34.147507 -2.834076 -1.102126 -13.139378 37.716019 -3.667040 -10.240321 -14.023458 -10.721732 1.817054 39.861305 0.000008 0.000020 -26.077278 -0.000020 -0.000013 -18.142952 -0.000568 0.000004 0.000211 -15.712284 17.163837 -9.677859 -9.006684 -0.687604 2.754174 -9.210467 0.286372 2.582662 0.000011 0.000464 0.000012 -12.842179 7.099378 -10.415538 -8.554357 -0.888393 1.054803 -8.318680 0.093544 0.908548 0.000278 -0.000036 -0.000148 -9.480927 -9.063129 -10.418036 -8.232061 1.851545 -1.491511 -8.150209 -0.115901 -1.128962 0.000131 0.000016 0.000004 -4.454241 -25.811636 -13.060593 -7.033381 3.553264 -4.002334 -7.076410 -0.359415 -3.452457 0.000009 0.000004 -0.000051 0.000000 0.000000 0.000000 0.000000 0.000000 0.000000 1.362084 5.101235 8.075819 -0.068143 -0.365050 9.598368 -4.193722 0.284366 17.228321 -0.402592 0.428550 -20.891506 0.000000 0.000000 0.000000 0.000000 0.000000 0.000000 0.000000 0.000000 0.000000 0.981992 8.728818 11.868827 0.038724 0.662157 5.871003 1.094729 9.031796 17.820898 0.764104 -0.830288 -19.028084 0.000000 0.000000 0.000000 0.000000 0.000000 0.000000 0.000000 0.000000 0.000000 
-0.086400 88.776535 3.037678 -0.010376 0.394499 -8.509349 -1.197260 0.237412 7.098499 1.300290 -0.168818 2.508614 -0.941715 1.965034 2.983366 1.379429 0.220252 2.899498 -3.985132 0.696196 3.863133 -0.028083 -0.604382 -3.177165 -0.123574 0.334401 -18.116749 0.000000 0.000000 0.000000 90.293755 -0.018714 6.953770 69.852074 -19.739838 1.197855 0.076649 10.002278 25.855524 4.101891 23.209457 -8.414186 10.961658 -1.857054 39.754318 -0.000002 0.000031 -26.798250 -0.000008 0.000035 -18.609165 0.000010 -0.000001 -0.000017 12.999678 16.901602 -10.002170 10.330209 -0.655925 -2.801342 10.391131 0.324257 -2.619447 0.000001 0.000023 -0.000024 13.699312 6.997918 -10.312176 10.098209 -0.866391 -1.117012 10.109748 0.112325 -0.949601 0.000021 -0.000034 0.000005 18.264194 -9.013183 -10.444137 11.064700 1.800194 1.584583 11.021145 -0.160573 1.222412 -0.000032 0.000269 0.000002 22.696018 -25.469164 -12.166569 10.819526 3.410042 4.703889 10.582180 -0.510281 4.010021 0.000222 0.000004 -0.000006 0.000000 0.000000 0.000000 0.000000 0.000000 0.000000 -90.209404 0.107947 9.399009 -67.742271 33.865520 -2.974448 -1.092341 -13.161744 37.822678 -3.607833 -9.957683 -13.949789 -10.736058 1.816218 39.852261 0.000007 0.000020 -26.119461 -0.000023 -0.000014 -18.174398 -0.000686 0.000003 0.000256 -15.828826 17.156645 -9.575235 -9.095471 -0.696741 2.716672 -9.293793 0.278144 2.544927 0.000008 0.000392 0.000013 -12.934149 7.097172 -10.353878 -8.626949 -0.891896 1.037510 -8.390508 0.090425 0.894408 0.000283 -0.000036 -0.000164 -9.563209 -9.065778 -10.405279 -8.308667 1.856650 -1.471383 -8.222818 -0.112296 -1.113667 0.000168 0.000016 0.000004 -4.554740 -25.829117 -13.087088 -7.119221 3.566147 -3.951673 -7.151417 -0.349454 -3.408136 -0.000013 0.000003 -0.000052 0.000000 0.000000 0.000000 0.000000 0.000000 0.000000 1.308595 5.072783 8.098994 -0.068008 -0.358637 9.694544 -4.207055 0.358039 17.191164 -0.394276 0.424272 -20.903461 0.000000 0.000000 0.000000 0.000000 0.000000 0.000000 0.000000 0.000000 0.000000 0.969032 8.765692 11.980332 0.037233 0.661217 5.761807 1.090956 9.009142 17.917210 0.769424 -0.829302 -19.037539 0.000000 0.000000 0.000000 0.000000 0.000000 0.000000 0.000000 0.000000 0.000000 
